HIERARCHY
ROOT Hips
{
    OFFSET   0.000000   0.000000   0.000000
    CHANNELS 6 Xposition Yposition Zposition Zrotation Xrotation Yrotation
    JOINT Chest
    {
        OFFSET   0.000000   8.007230   0.000000
        CHANNELS 3 Zrotation Xrotation Yrotation
        JOINT Chest2
        {
            OFFSET   0.000000  22.077100   0.000000
            CHANNELS 3 Zrotation Xrotation Yrotation
            JOINT Neck
            {
                OFFSET   0.000000  23.255100   0.000000
                CHANNELS 3 Zrotation Xrotation Yrotation
                JOINT Head
                {
                    OFFSET   0.000000  14.370100   1.956600
                    CHANNELS 3 Zrotation Xrotation Yrotation
                    End Site
                    {
                        OFFSET   0.000000  19.566000   0.000000
                    }
                }
            }
            JOINT LeftCollar
            {
                OFFSET   3.911900  19.017000  -0.467063
                CHANNELS 3 Zrotation Xrotation Yrotation
                JOINT LeftShoulder
                {
                    OFFSET  10.383700   0.000000   0.000000
                    CHANNELS 3 Zrotation Xrotation Yrotation
                    JOINT LeftElbow
                    {
                        OFFSET  26.662100   0.001193   0.000980
                        CHANNELS 3 Zrotation Xrotation Yrotation
                        JOINT LeftWrist
                        {
                            OFFSET  28.869000  -0.000059  -0.000082
                            CHANNELS 3 Zrotation Xrotation Yrotation
                            JOINT LeftFinger0
                            {
                                OFFSET   2.044650  -2.323450   3.252850
                                CHANNELS 3 Zrotation Xrotation Yrotation
                                JOINT LeftFinger01
                                {
                                    OFFSET   3.088130   0.000000   0.000000
                                    CHANNELS 3 Zrotation Xrotation Yrotation
                                    JOINT LeftFinger02
                                    {
                                        OFFSET   2.639460   0.000000   0.000000
                                        CHANNELS 3 Zrotation Xrotation Yrotation
                                        End Site
                                        {
                                            OFFSET   2.582190   0.000000   0.000000
                                        }
                                    }
                                }
                            }
                            JOINT LeftFinger1
                            {
                                OFFSET   8.364480   0.000000   3.252850
                                CHANNELS 3 Zrotation Xrotation Yrotation
                                JOINT LeftFinger11
                                {
                                    OFFSET   4.646930   0.000000   0.000000
                                    CHANNELS 3 Zrotation Xrotation Yrotation
                                    JOINT LeftFinger12
                                    {
                                        OFFSET   2.323470   0.000000   0.000000
                                        CHANNELS 3 Zrotation Xrotation Yrotation
                                        End Site
                                        {
                                            OFFSET   2.273050   0.000000   0.000000
                                        }
                                    }
                                }
                            }
                            JOINT LeftFinger2
                            {
                                OFFSET   8.364490   0.000016   1.078090
                                CHANNELS 3 Zrotation Xrotation Yrotation
                                JOINT LeftFinger21
                                {
                                    OFFSET   5.111610   0.000000   0.000000
                                    CHANNELS 3 Zrotation Xrotation Yrotation
                                    JOINT LeftFinger22
                                    {
                                        OFFSET   2.788150   0.000016   0.000000
                                        CHANNELS 3 Zrotation Xrotation Yrotation
                                        End Site
                                        {
                                            OFFSET   2.727660   0.000000   0.000000
                                        }
                                    }
                                }
                            }
                            JOINT LeftFinger3
                            {
                                OFFSET   7.899780   0.000015  -1.078090
                                CHANNELS 3 Zrotation Xrotation Yrotation
                                JOINT LeftFinger31
                                {
                                    OFFSET   4.646930   0.000000   0.000000
                                    CHANNELS 3 Zrotation Xrotation Yrotation
                                    JOINT LeftFinger32
                                    {
                                        OFFSET   2.323470   0.000000   0.000000
                                        CHANNELS 3 Zrotation Xrotation Yrotation
                                        End Site
                                        {
                                            OFFSET   2.273050   0.000000   0.000000
                                        }
                                    }
                                }
                            }
                            JOINT LeftFinger4
                            {
                                OFFSET   7.435090   0.000000  -3.252850
                                CHANNELS 3 Zrotation Xrotation Yrotation
                                JOINT LeftFinger41
                                {
                                    OFFSET   3.717550   0.000000   0.000000
                                    CHANNELS 3 Zrotation Xrotation Yrotation
                                    JOINT LeftFinger42
                                    {
                                        OFFSET   1.858770   0.000000   0.000000
                                        CHANNELS 3 Zrotation Xrotation Yrotation
                                        End Site
                                        {
                                            OFFSET   1.818440   0.000000   0.000000
                                        }
                                    }
                                }
                            }
                        }
                    }
                }
            }
            JOINT RightCollar
            {
                OFFSET  -3.911910  19.017000  -0.467062
                CHANNELS 3 Zrotation Xrotation Yrotation
                JOINT RightShoulder
                {
                    OFFSET -10.383700   0.000014   0.000000
                    CHANNELS 3 Zrotation Xrotation Yrotation
                    JOINT RightElbow
                    {
                        OFFSET -26.662100   0.001225   0.001091
                        CHANNELS 3 Zrotation Xrotation Yrotation
                        JOINT RightWrist
                        {
                            OFFSET -28.869000  -0.000020  -0.000085
                            CHANNELS 3 Zrotation Xrotation Yrotation
                            JOINT RightFinger0
                            {
                                OFFSET  -2.044650  -2.323490   3.252850
                                CHANNELS 3 Zrotation Xrotation Yrotation
                                JOINT RightFinger01
                                {
                                    OFFSET  -3.088130   0.000000   0.000000
                                    CHANNELS 3 Zrotation Xrotation Yrotation
                                    JOINT RightFinger02
                                    {
                                        OFFSET  -2.639460   0.000000   0.000000
                                        CHANNELS 3 Zrotation Xrotation Yrotation
                                        End Site
                                        {
                                            OFFSET  -2.582190   0.000000   0.000000
                                        }
                                    }
                                }
                            }
                            JOINT RightFinger1
                            {
                                OFFSET  -8.364480   0.000000   3.252850
                                CHANNELS 3 Zrotation Xrotation Yrotation
                                JOINT RightFinger11
                                {
                                    OFFSET  -4.646930   0.000000   0.000000
                                    CHANNELS 3 Zrotation Xrotation Yrotation
                                    JOINT RightFinger12
                                    {
                                        OFFSET  -2.323470   0.000000   0.000000
                                        CHANNELS 3 Zrotation Xrotation Yrotation
                                        End Site
                                        {
                                            OFFSET  -2.273050   0.000000   0.000000
                                        }
                                    }
                                }
                            }
                            JOINT RightFinger2
                            {
                                OFFSET  -8.364480   0.000000   1.078090
                                CHANNELS 3 Zrotation Xrotation Yrotation
                                JOINT RightFinger21
                                {
                                    OFFSET  -5.111620   0.000000   0.000000
                                    CHANNELS 3 Zrotation Xrotation Yrotation
                                    JOINT RightFinger22
                                    {
                                        OFFSET  -2.788160   0.000000   0.000000
                                        CHANNELS 3 Zrotation Xrotation Yrotation
                                        End Site
                                        {
                                            OFFSET  -2.727660   0.000000   0.000000
                                        }
                                    }
                                }
                            }
                            JOINT RightFinger3
                            {
                                OFFSET  -7.899780   0.000000  -1.078090
                                CHANNELS 3 Zrotation Xrotation Yrotation
                                JOINT RightFinger31
                                {
                                    OFFSET  -4.646930   0.000000   0.000000
                                    CHANNELS 3 Zrotation Xrotation Yrotation
                                    JOINT RightFinger32
                                    {
                                        OFFSET  -2.323470   0.000000   0.000000
                                        CHANNELS 3 Zrotation Xrotation Yrotation
                                        End Site
                                        {
                                            OFFSET  -2.273050   0.000000   0.000000
                                        }
                                    }
                                }
                            }
                            JOINT RightFinger4
                            {
                                OFFSET  -7.435090   0.000000  -3.252850
                                CHANNELS 3 Zrotation Xrotation Yrotation
                                JOINT RightFinger41
                                {
                                    OFFSET  -3.717550   0.000000   0.000000
                                    CHANNELS 3 Zrotation Xrotation Yrotation
                                    JOINT RightFinger42
                                    {
                                        OFFSET  -1.858760   0.000000   0.000000
                                        CHANNELS 3 Zrotation Xrotation Yrotation
                                        End Site
                                        {
                                            OFFSET  -1.818440   0.000000   0.000000
                                        }
                                    }
                                }
                            }
                        }
                    }
                }
            }
        }
    }
    JOINT LeftHip
    {
        OFFSET   9.783030   0.000000   0.000000
        CHANNELS 3 Zrotation Xrotation Yrotation
        JOINT LeftKnee
        {
            OFFSET   0.000063 -41.789100   0.000608
            CHANNELS 3 Zrotation Xrotation Yrotation
            JOINT LeftAnkle
            {
                OFFSET   0.000048 -41.133200  -0.000184
                CHANNELS 3 Zrotation Xrotation Yrotation
                JOINT LeftToe
                {
                    OFFSET   0.000000  -6.358960  14.674500
                    CHANNELS 3 Zrotation Xrotation Yrotation
                    End Site
                    {
                        OFFSET   0.000000   0.000000   3.913200
                    }
                }
            }
        }
    }
    JOINT RightHip
    {
        OFFSET  -9.783030   0.000000   0.000000
        CHANNELS 3 Zrotation Xrotation Yrotation
        JOINT RightKnee
        {
            OFFSET   0.000071 -41.789100   0.001239
            CHANNELS 3 Zrotation Xrotation Yrotation
            JOINT RightAnkle
            {
                OFFSET   0.000037 -41.133200  -0.000166
                CHANNELS 3 Zrotation Xrotation Yrotation
                JOINT RightToe
                {
                    OFFSET   0.000000  -6.358960  14.674500
                    CHANNELS 3 Zrotation Xrotation Yrotation
                    End Site
                    {
                        OFFSET   0.000000   0.000000   3.913200
                    }
                }
            }
        }
    }
}
MOTION
Frames: 4
Frame Time:   0.016667
 -0.192661  89.577500  -1.480930  -3.359120  -8.532010  -2.748310   1.134380   5.016320   0.627527   2.226230  10.043900   1.161520   0.564523  -0.119708  -0.005779   0.927478  -0.242584   0.808357  -4.958000   0.135623  -0.156137 -73.352200  17.377800  -2.453530  -1.347020  -4.177310 -18.139200  16.744700 -19.209800   7.683140  42.606900  31.637700 -64.663100 -24.124300   0.001789   0.003321  -7.062170   0.011780   0.000000 -24.741600   4.287450  -9.211540 -20.527900   0.002808   0.011667 -14.366300   0.007003   0.008978 -27.157200  -0.111289   0.216925 -27.655200   0.002718   0.010578 -18.415300   0.000347   0.004795 -27.110900  -0.111141   0.217005 -27.487700  -0.000716  -0.001263 -18.293100   0.003955  -0.000499 -27.376600  -0.112131   0.216492 -41.070000   0.013237   0.000578 -27.349300  -0.005654   0.003151  10.115400   1.493650   7.184470  68.022600   1.835300  -4.441080  -3.081390  -9.046020  13.045600 -10.067300   1.734620  -0.979659 -36.151400  27.953700  60.761600  32.138200   0.004251  -0.002622  11.069100   0.001882  -0.004875  35.134800   8.041440  11.242900  29.395300   0.009760   0.001105  20.576700   0.001277   0.000677  30.173400   1.377400   2.367320  45.302800  -0.004272   0.003207  30.171700   0.012381   0.002292  31.687300   1.233820   1.997550  47.563200  -0.000071   0.008628  31.677100   0.015333   0.003204  49.273500  -4.239450  -3.638290  74.111900  -0.000768   0.001960  49.358600   0.000638   0.009036   2.051680  10.205100   2.200720   1.020370   0.062094   7.310290  -0.661065  -2.697570   4.109960  -0.000000   0.000000   0.000000   3.983290   6.270170  -5.680450  -2.239600   5.742260  -9.163330   0.136920  -4.167090  -0.449389  -0.000000   0.000000   0.000000
 -0.192390  89.577400  -1.459380  -3.357500  -8.555550  -2.722930   1.137450   5.024890   0.626997   2.232400  10.061100   1.159840   0.556198  -0.085482  -0.005766   0.913797  -0.173343   0.819925  -4.957990   0.133175  -0.157450 -73.359300  17.398500  -2.461650  -1.350440  -4.183100 -18.134800  16.731100 -19.202400   7.682890  42.608100  31.641900 -64.668600 -24.133700   0.001782   0.003333  -7.066790   0.011784   0.000000 -24.743300   4.282380  -9.200460 -20.527900   0.002801   0.011661 -14.366400   0.007002   0.008971 -27.157100  -0.115683   0.225966 -27.655400   0.002717   0.010572 -18.415400   0.000339   0.004786 -27.110900  -0.115522   0.226049 -27.482700  -0.000736  -0.001265 -18.293300   0.003950  -0.000521 -27.376500  -0.116550   0.225514 -41.068800   0.013238   0.000565 -27.349300  -0.005649   0.003143  10.121300   1.451090   7.184330  68.032500   1.836750  -4.427760  -3.131250  -9.111580  13.043100 -10.049200   1.736810  -0.895397 -36.157800  27.961800  60.761800  32.132800   0.004252  -0.002618  11.066400   0.001888  -0.004878  35.113000   8.024570  11.229400  29.375400   0.009760   0.001061  20.562800   0.001278   0.000640  30.147700   1.356590   2.335250  45.263700  -0.004305   0.003121  30.145700   0.012380   0.002236  31.656500   1.220420   1.979390  47.518700  -0.000113   0.008638  31.647400   0.015332   0.003157  49.258700  -4.233810  -3.636790  74.089600  -0.000795   0.001822  49.343700   0.000554   0.009116   2.049570  10.249100   2.201440   1.017650   0.033869   7.296490  -0.657329  -2.695510   4.099600  -0.000000   0.000000   0.000000   3.993110   6.309430  -5.699800  -2.244820   5.742820  -9.187260   0.124304  -4.187440  -0.450386   0.000000   0.000000   0.000000
 -0.192119  89.577400  -1.424060  -3.354830  -8.599370  -2.679330   1.142100   5.043630   0.626477   2.241670  10.098600   1.158240   0.543093  -0.033602  -0.005744   0.892214  -0.068333   0.831493  -4.957990   0.122111  -0.166647 -73.369600  17.437200  -2.473680  -1.359510  -4.194820 -18.126400  16.709100 -19.188400   7.682320  42.606700  31.647000 -64.675200 -24.147700   0.001766   0.003345  -7.073870   0.011799   0.000000 -24.745500   4.275910  -9.185390 -20.528000   0.002777   0.011644 -14.366500   0.006997   0.008954 -27.157000  -0.122063   0.237929 -27.655600   0.002707   0.010556 -18.415600   0.000318   0.004761 -27.111000  -0.121882   0.238021 -27.474300  -0.000785  -0.001272 -18.293600   0.003934  -0.000577 -27.376500  -0.122962   0.237467 -41.065100   0.013241   0.000532 -27.349300  -0.005641   0.003120  10.133200   1.360320   7.184050  68.065000   1.845170  -4.386080  -3.206400  -9.194080  13.041200 -10.031800   1.751890  -0.781465 -36.202700  28.018800  60.762900  32.110300   0.004256  -0.002606  11.055200   0.001903  -0.004880  35.091200   8.007700  11.216000  29.355600   0.009761   0.000988  20.548900   0.001280   0.000579  30.105700   1.335770   2.303180  45.199200  -0.004377   0.002978  30.102700   0.012378   0.002144  31.617000   1.207010   1.961230  47.457000  -0.000208   0.008659  31.606400   0.015328   0.003080  49.228800  -4.222300  -3.632680  74.044100  -0.000839   0.001592  49.313400   0.000413   0.009285   2.046270  10.323400   2.202370   1.014320   0.002749   7.272960  -0.651615  -2.693470   4.079780   0.000000   0.000000   0.000000   4.010120   6.380180  -5.727440  -2.255950   5.744970  -9.212230   0.103560  -4.222990  -0.457311   0.000000   0.000000  -0.000000
 -0.193168  89.577400  -1.397190  -3.352520  -8.644150  -2.639580   1.144890   5.068020   0.627907   2.246990  10.147400   1.160610   0.534242  -0.003297  -0.005724   0.877676  -0.006825   0.821085  -4.958640   0.097849  -0.193813 -73.374200  17.478400  -2.481070  -1.374700  -4.209140 -18.116000  16.693200 -19.172100   7.681530  42.602500  31.647600 -64.675900 -24.156600   0.001747   0.003337  -7.079110   0.011832   0.000000 -24.746200   4.274280  -9.180520 -20.528200   0.002730   0.011616 -14.366600   0.006985   0.008934 -27.156900  -0.125192   0.241338 -27.655600   0.002683   0.010530 -18.415700   0.000284   0.004721 -27.111100  -0.125000   0.241436 -27.467900  -0.000856  -0.001284 -18.292400   0.003905  -0.000665 -27.372700  -0.126096   0.240887 -41.058200   0.013251   0.000483 -27.345600  -0.005636   0.003082  10.147000   1.243570   7.175720  68.122700   1.858320  -4.318580  -3.249480  -9.212700  13.072800 -10.105000   1.836010  -0.761717 -36.339700  28.223000  60.768700  32.047600   0.004261  -0.002581  11.023900   0.001923  -0.004871  35.077900   8.055850  11.294400  29.357800   0.009765   0.000915  20.550500   0.001282   0.000522  30.064100   1.379540   2.388300  45.136500  -0.004480   0.002836  30.060900   0.012375   0.002050  31.602200   1.269770   2.073610  47.433100  -0.000346   0.008684  31.590400   0.015324   0.003002  49.182800  -4.204480  -3.623700  73.973800  -0.000884   0.001362  49.266600   0.000273   0.009515   2.043840  10.385700   2.202790   1.013720  -0.000625   7.248380  -0.646742  -2.702040   4.057600  -0.000000   0.000000  -0.000000   4.025000   6.448890  -5.739490  -2.268640   5.748410  -9.213470   0.086302  -4.255150  -0.495104   0.000000   0.000000  -0.000000
